<svg xmlns="http://www.w3.org/2000/svg" xmlns:xlink="http://www.w3.org/1999/xlink" width="100.0" height="100.0" viewBox="31.679861111111105 -17.319861111111113 4.640000000000011 8.640000000000004" preserveAspectRatio="xMinYMin meet"><g transform="matrix(1,0,0,-1,0,-25.99972222222222)"><g><path fill-rule="evenodd" fill="#66cc99" stroke="#555555" stroke-width="0.1728000000000001" opacity="0.6" d="M 34.99986111111111,-16.999861111111112 L 33.99986111111111,-16.999861111111112 L 33.99986111111111,-15.999861111111114 L 34.99986111111111,-15.999861111111114 L 34.999861111111116,-15.999861111111114 L 35.999861111111116,-15.999861111111114 L 35.999861111111116,-16.999861111111112 L 34.999861111111116,-16.999861111111112 L 34.99986111111111,-16.999861111111112 z" /><path fill-rule="evenodd" fill="#66cc99" stroke="#555555" stroke-width="0.1728000000000001" opacity="0.6" d="M 31.999861111111105,-12.999861111111112 L 31.999861111111105,-12.99986111111111 L 31.999861111111105,-11.99986111111111 L 32.9998611111111,-11.99986111111111 L 32.9998611111111,-10.999861111111112 L 32.9998611111111,-10.99986111111111 L 32.9998611111111,-9.99986111111111 L 33.9998611111111,-9.99986111111111 L 33.9998611111111,-10.99986111111111 L 33.9998611111111,-10.999861111111112 L 33.9998611111111,-11.99986111111111 L 33.9998611111111,-11.999861111111112 L 33.9998611111111,-12.99986111111111 L 33.9998611111111,-12.999861111111112 L 33.9998611111111,-13.99986111111111 L 33.9998611111111,-13.999861111111112 L 33.9998611111111,-14.999861111111112 L 32.9998611111111,-14.999861111111112 L 32.9998611111111,-13.999861111111112 L 31.999861111111105,-13.999861111111112 L 31.999861111111105,-12.999861111111112 z" /><path fill-rule="evenodd" fill="#66cc99" stroke="#555555" stroke-width="0.1728000000000001" opacity="0.6" d="M 33.99986111111111,-10.99986111111111 L 33.99986111111111,-9.99986111111111 L 34.999861111111116,-9.99986111111111 L 34.999861111111116,-10.99986111111111 L 34.999861111111116,-10.999861111111112 L 34.999861111111116,-11.99986111111111 L 34.999861111111116,-11.999861111111112 L 34.999861111111116,-12.99986111111111 L 35.999861111111116,-12.99986111111111 L 35.999861111111116,-13.99986111111111 L 35.999861111111116,-13.999861111111112 L 35.999861111111116,-14.99986111111111 L 35.999861111111116,-14.999861111111112 L 35.999861111111116,-15.999861111111112 L 34.999861111111116,-15.999861111111112 L 34.99986111111111,-15.999861111111112 L 33.99986111111111,-15.999861111111112 L 33.99986111111111,-14.999861111111112 L 33.99986111111111,-14.99986111111111 L 33.99986111111111,-13.999861111111112 L 33.99986111111111,-13.99986111111111 L 33.99986111111111,-12.999861111111112 L 33.99986111111111,-12.99986111111111 L 33.99986111111111,-11.999861111111112 L 33.99986111111111,-11.99986111111111 L 33.99986111111111,-10.999861111111112 L 33.99986111111111,-10.99986111111111 z" /><path fill-rule="evenodd" fill="#66cc99" stroke="#555555" stroke-width="0.1728000000000001" opacity="0.6" d="M 32.9998611111111,-9.999861111111109 L 31.999861111111105,-9.999861111111109 L 31.999861111111105,-8.999861111111109 L 32.9998611111111,-8.999861111111109 L 32.99986111111111,-8.999861111111109 L 33.9998611111111,-8.999861111111109 L 33.9998611111111,-9.999861111111109 L 32.99986111111111,-9.999861111111109 L 32.9998611111111,-9.999861111111109 z" /><path fill-rule="evenodd" fill="#66cc99" stroke="#555555" stroke-width="0.1728000000000001" opacity="0.6" d="M 33.99986111111111,-9.999861111111109 L 33.99986111111111,-8.999861111111109 L 34.999861111111116,-8.999861111111109 L 34.999861111111116,-9.999861111111109 L 33.99986111111111,-9.999861111111109 z" /></g></g></svg>